<?xml version="1.0" encoding="utf-8"?>
<!-- Generator: Adobe Illustrator 16.0.0, SVG Export Plug-In . SVG Version: 6.00 Build 0)  -->
<!DOCTYPE svg PUBLIC "-//W3C//DTD SVG 1.1//EN" "http://www.w3.org/Graphics/SVG/1.1/DTD/svg11.dtd">
<svg version="1.1" id="图层_1" xmlns="http://www.w3.org/2000/svg" xmlns:xlink="http://www.w3.org/1999/xlink" x="0px" y="0px"
	 width="93px" height="30px" viewBox="0 0 93 30" enable-background="new 0 0 93 30" xml:space="preserve">
<g>
	<g>
		<path fill="#FFFFFF" d="M27.999,0.24c-0.587-0.241-1.194-0.3-1.821-0.18c-0.614,0.134-1.147,0.428-1.601,0.882l-9.606,9.6
			l-9.586-9.6C4.93,0.487,4.389,0.193,3.762,0.06c-0.627-0.12-1.234-0.061-1.821,0.18C1.354,0.494,0.887,0.881,0.54,1.402
			C0.18,1.937,0,2.524,0,3.166v23.669c0,0.882,0.307,1.63,0.921,2.245c0.614,0.614,1.361,0.922,2.241,0.922
			c0.867,0,1.608-0.308,2.222-0.922c0.614-0.615,0.92-1.363,0.92-2.245V10.782l6.445,6.454c0.613,0.614,1.354,0.922,2.221,0.922
			c0.881,0,1.628-0.308,2.242-0.922l6.444-6.454v16.053c0,0.882,0.307,1.63,0.92,2.245c0.614,0.614,1.354,0.922,2.222,0.922
			c0.867,0,1.607-0.308,2.221-0.922c0.627-0.615,0.941-1.363,0.941-2.245V3.166c0-0.642-0.18-1.229-0.541-1.764
			C29.072,0.881,28.599,0.494,27.999,0.24z M47.271-0.001h-7.866c-0.88,0-1.628,0.314-2.242,0.942
			c-0.614,0.614-0.92,1.356-0.92,2.225v23.669c0,0.882,0.307,1.63,0.92,2.245c0.614,0.614,1.361,0.922,2.242,0.922h7.866
			c4.135,0,7.664-1.463,10.586-4.389c2.936-2.939,4.404-6.475,4.404-10.603c0-4.142-1.469-7.676-4.404-10.603
			C54.936,1.469,51.406-0.001,47.271-0.001z M53.416,21.144c-1.695,1.696-3.742,2.545-6.145,2.545h-4.724V6.313h4.724
			c2.402,0,4.449,0.855,6.145,2.565c1.693,1.697,2.541,3.741,2.541,6.133S55.109,19.447,53.416,21.144z M89.84,23.688H73.289v-5.531
			h12.607c0.867,0,1.615-0.308,2.242-0.922c0.613-0.614,0.92-1.356,0.92-2.225c0-0.882-0.307-1.63-0.92-2.245
			c-0.627-0.614-1.375-0.922-2.242-0.922H73.289V6.313H89.84c0.867,0,1.613-0.307,2.24-0.922c0.615-0.614,0.922-1.356,0.922-2.225
			s-0.307-1.61-0.922-2.225c-0.627-0.628-1.373-0.942-2.24-0.942H70.146c-0.881,0-1.629,0.314-2.242,0.942
			c-0.613,0.614-0.92,1.356-0.92,2.225v23.669c0,0.882,0.307,1.63,0.92,2.245c0.613,0.614,1.361,0.922,2.242,0.922H89.84
			c0.867,0,1.613-0.308,2.24-0.922c0.615-0.615,0.922-1.363,0.922-2.245c0-0.868-0.307-1.61-0.922-2.225
			C91.453,23.996,90.707,23.688,89.84,23.688z"/>
	</g>
</g>
</svg>
